<svg xmlns="http://www.w3.org/2000/svg" width="28" height="28" fill="none">
  <path fill="#9DA426" d="M.77 26.02l-.35-.35-.36.35.36.35.35-.35zm.36-.35l-.36-.36.36.36zm.35 1.06l-.35.35.35.36.35-.36-.35-.35zm.35-.36l.36.36-.36-.36zM13.5 14.71l.35-.36-.35-.35-.35.35.35.36zm11.87 11.86l-.36.36.36-.36zm.35.36l-.35.35.35.36.35-.36-.35-.35zm.7-.7l.36.34.36-.35-.36-.35-.35.35zm-.35-.36l.36-.36-.36.36zM14.21 14l-.36-.35-.35.35.35.35.36-.35zM26.07 2.13l.36.36-.36-.36zm.36-.35l.35.35.36-.35-.36-.35-.35.35zm-.7-.7l.34-.36-.35-.36-.35.36.35.35zm-.36.35L25 1.07l.36.36zM13.5 13.29l-.35.36.35.35.35-.35-.35-.36zM1.83 1.63l.36-.36-.36.36zm-.35-.36l.35-.35-.35-.35-.35.35.35.35zm-.7.7l-.36-.34-.36.35.36.35.35-.35zm.35.36l-.36.36.36-.36zM12.79 14l.36.35.35-.35-.35-.35-.36.35zM1.13 26.37l.35-.35-.7-.7-.36.35.7.7zm.7 0l-.7-.7-.71.7.7.71.71-.7zm-.35-.35l-.35.35.7.71.36-.35-.71-.7zm11.67-11.67L1.48 26.02l.7.7 11.67-11.66-.7-.7zm12.57 11.87L13.85 14.35l-.7.71L25 26.93l.71-.7zm.35.35l-.35-.35-.7.7.35.36.7-.7zm0-.7l-.7.7.7.71.71-.7-.7-.71zm-.35.35l.35.35.71-.7-.35-.36-.7.71zM13.85 14.35l11.87 11.87.7-.7-11.86-11.87-.7.7zM25.72 1.78L13.85 13.65l.71.7L26.43 2.5l-.7-.71zm.35-.35l-.35.35.7.7.36-.35-.7-.7zm-.7 0l.7.7.71-.7-.7-.71-.71.7zm.35.35l.35-.35-.7-.71-.36.35.71.7zM13.85 13.65L25.72 1.78l-.7-.7-11.87 11.86.7.7zM1.48 1.98l11.67 11.67.7-.71L2.2 1.27l-.71.7zm-.35-.35l.35.35.7-.7-.35-.36-.7.7zm0 .7l.7-.7-.7-.71-.71.7.7.71zm.35-.35l-.35-.35-.71.7.35.36.7-.71zm11.67 11.67L1.48 1.98l-.7.7 11.66 11.67.7-.7zM1.48 26.02l11.67-11.67-.71-.7L.77 25.3l.7.71z"/>
</svg>