<svg xmlns="http://www.w3.org/2000/svg" width="37" height="18" fill="none">
  <path fill="#4C4C4C" d="M1 .5V0H.5v.5H1zm0 1H.5V2H1v-.5zm35.28 0V2h.5v-.5h-.5zm0-1h.5V0h-.5v.5zM1 8.5V8H.5v.5H1zm0 1H.5v.5H1v-.5zm35.28 0v.5h.5v-.5h-.5zm0-1h.5V8h-.5v.5zM1 16.5V16H.5v.5H1zm0 1H.5v.5H1v-.5zm35.28 0v.5h.5v-.5h-.5zm0-1h.5V16h-.5v.5zM1 1h.5V0H1v1zm.5.5v-1h-1v1h1zm0-.5H1v1h.5V1zm34.28 0H1.5v1h34.28V1zm.5 0h-.5v1h.5V1zm-.5-.5v1h1v-1h-1zm0 .5h.5V0h-.5v1zM1.5 1h34.28V0H1.5v1zM1 9h.5V8H1v1zm.5.5v-1h-1v1h1zm0-.5H1v1h.5V9zm34.28 0H1.5v1h34.28V9zm.5 0h-.5v1h.5V9zm-.5-.5v1h1v-1h-1zm0 .5h.5V8h-.5v1zM1.5 9h34.28V8H1.5v1zM1 17h.5v-1H1v1zm.5.5v-1h-1v1h1zm0-.5H1v1h.5v-1zm34.28 0H1.5v1h34.28v-1zm.5 0h-.5v1h.5v-1zm-.5-.5v1h1v-1h-1zm0 .5h.5v-1h-.5v1zM1.5 17h34.28v-1H1.5v1z"/>
</svg>